<?xml version="1.0" encoding="UTF-8" standalone="no"?>
<!DOCTYPE svg PUBLIC "-//W3C//DTD SVG 1.1//EN" "http://www.w3.org/Graphics/SVG/1.1/DTD/svg11.dtd">
<svg width="100%" height="100%" viewBox="0 0 800 600" version="1.1" xmlns="http://www.w3.org/2000/svg" xmlns:xlink="http://www.w3.org/1999/xlink" xml:space="preserve" xmlns:serif="http://www.serif.com/" style="fill-rule:evenodd;clip-rule:evenodd;stroke-linejoin:round;stroke-miterlimit:2;">
    <g transform="matrix(1,0,0,1,-50,-41.3189)">
        <g id="Table">
            <circle cx="450" cy="330" r="250" style="fill:rgb(161,13,0);"/>
        </g>
    </g>
    <g id="Plate">
        <g transform="matrix(1,0,0,1,-91,8.68114)">
            <circle cx="491" cy="280" r="120" style="fill:rgb(199,199,199);"/>
        </g>
        <g transform="matrix(0.594324,0,0,0.594324,108.187,122.27)">
            <circle cx="491" cy="280" r="120" style="fill:rgb(235,240,241);"/>
        </g>
    </g>
    <g id="Spoon" transform="matrix(1,0,0,1,-150,33.2972)">
        <g transform="matrix(1,0,0,1,-10,18.0217)">
            <ellipse cx="720" cy="199.341" rx="20" ry="30.659" style="fill:rgb(193,200,201);"/>
        </g>
        <g transform="matrix(0.5,0,0,4.5,355,-1110)">
            <rect x="700" y="300" width="20" height="20" style="fill:rgb(193,200,201);"/>
        </g>
        <g transform="matrix(0.5,0,0,0.5,360,150.5)">
            <circle cx="700" cy="360" r="10" style="fill:rgb(193,200,201);"/>
        </g>
    </g>
    <g id="Knife" transform="matrix(0.645296,0,0,1,-242.934,39.3927)">
        <g transform="matrix(0.5,0,0,0.5,360,150.5)">
            <circle cx="700" cy="360" r="10" style="fill:rgb(193,200,201);"/>
        </g>
        <g transform="matrix(0.5,0,0,4.5,355,-1110)">
            <rect x="700" y="300" width="20" height="20" style="fill:rgb(193,200,201);"/>
        </g>
        <g transform="matrix(1.54968,0,0,1.38675,-444.859,-102.291)">
            <path d="M750,204L750,263.906L740,263.906L740,213.906L740,213.906C740.051,208.426 744.509,204 750,204Z" style="fill:rgb(193,200,201);"/>
        </g>
    </g>
    <g transform="matrix(1,0,0,1,-459.344,34.9841)">
        <g id="Fork">
            <g id="Fork1" serif:id="Fork">
                <g transform="matrix(1,0,0,1,-10,18.0159)">
                    <path d="M739.344,207C737.146,220.223 729.312,230 720,230C710.688,230 702.854,220.223 700.656,207L739.344,207Z" style="fill:rgb(193,200,201);"/>
                </g>
                <g transform="matrix(1.69494,0,0,1.41825,-481.391,-66.8899)">
                    <g transform="matrix(1.84097,0,0,4.5,-574.727,-667.075)">
                        <path d="M692.451,188L694,194L690.901,194L692.451,188Z" style="fill:rgb(193,200,201);"/>
                    </g>
                    <g transform="matrix(1.84097,0,0,4.5,-563.318,-667.075)">
                        <path d="M692.451,188L694,194L690.901,194L692.451,188Z" style="fill:rgb(193,200,201);"/>
                    </g>
                    <g transform="matrix(1.84097,0,0,4.5,-580.431,-667.075)">
                        <path d="M692.451,188L694,194L690.901,194L692.451,188Z" style="fill:rgb(193,200,201);"/>
                    </g>
                    <g transform="matrix(1.84097,0,0,4.5,-569.022,-667.075)">
                        <path d="M692.451,188L694,194L690.901,194L692.451,188Z" style="fill:rgb(193,200,201);"/>
                    </g>
                </g>
                <g transform="matrix(0.5,0,0,4.5,355,-1110)">
                    <rect x="700" y="300" width="20" height="20" style="fill:rgb(193,200,201);"/>
                </g>
                <g transform="matrix(0.5,0,0,0.5,360,150.5)">
                    <circle cx="700" cy="360" r="10" style="fill:rgb(193,200,201);"/>
                </g>
            </g>
        </g>
    </g>
    <g transform="matrix(0.84105,-0.225359,0.231133,0.862601,-8.13568,110.223)">
        <g transform="matrix(57.9882,0,0,57.9882,340,303.075)">
            <path d="M0.047,-0.091L0.047,-0.669C0.047,-0.686 0.041,-0.698 0.028,-0.707C0.02,-0.712 0.016,-0.719 0.016,-0.727L0.016,-0.748C0.016,-0.756 0.02,-0.759 0.028,-0.759L0.181,-0.759C0.188,-0.759 0.191,-0.756 0.191,-0.749L0.191,-0.727C0.191,-0.719 0.187,-0.712 0.179,-0.707C0.166,-0.698 0.16,-0.685 0.16,-0.669L0.16,-0.058L0.202,-0.058C0.226,-0.058 0.245,-0.066 0.259,-0.081C0.272,-0.096 0.282,-0.122 0.289,-0.158C0.291,-0.172 0.293,-0.18 0.294,-0.182C0.295,-0.184 0.298,-0.186 0.303,-0.186L0.326,-0.186C0.334,-0.186 0.339,-0.182 0.339,-0.175L0.339,0L0.028,0C0.017,0 0.012,-0.005 0.012,-0.015L0.012,-0.033C0.012,-0.041 0.016,-0.047 0.026,-0.053C0.04,-0.061 0.047,-0.074 0.047,-0.091Z" style="fill-rule:nonzero;"/>
        </g>
        <g transform="matrix(57.9882,0,0,57.9882,360.217,303.075)">
            <path d="M0.291,-0.119C0.283,-0.033 0.244,0.01 0.174,0.01C0.127,0.01 0.09,-0.009 0.063,-0.049C0.036,-0.088 0.022,-0.147 0.022,-0.226C0.022,-0.302 0.035,-0.362 0.061,-0.405C0.087,-0.449 0.121,-0.471 0.165,-0.471C0.204,-0.471 0.235,-0.454 0.259,-0.42C0.283,-0.386 0.294,-0.341 0.294,-0.286L0.294,-0.245C0.294,-0.237 0.29,-0.233 0.282,-0.233L0.13,-0.233L0.13,-0.193C0.13,-0.149 0.134,-0.115 0.143,-0.092C0.151,-0.068 0.166,-0.057 0.187,-0.057C0.212,-0.057 0.229,-0.08 0.238,-0.128L0.291,-0.119ZM0.201,-0.287L0.201,-0.354C0.201,-0.401 0.189,-0.424 0.165,-0.424C0.141,-0.424 0.13,-0.394 0.13,-0.334L0.13,-0.287L0.201,-0.287Z" style="fill-rule:nonzero;"/>
        </g>
        <g transform="matrix(57.9882,0,0,57.9882,378.451,303.075)">
            <path d="M0.035,-0.408L0.018,-0.408C0.011,-0.408 0.007,-0.411 0.007,-0.417L0.007,-0.442C0.007,-0.449 0.01,-0.455 0.018,-0.46C0.027,-0.467 0.033,-0.475 0.036,-0.484C0.038,-0.492 0.04,-0.506 0.04,-0.526L0.04,-0.606C0.04,-0.614 0.045,-0.618 0.055,-0.62L0.115,-0.626C0.12,-0.627 0.123,-0.627 0.125,-0.627C0.13,-0.627 0.132,-0.623 0.132,-0.615L0.132,-0.46L0.182,-0.46C0.191,-0.46 0.196,-0.457 0.196,-0.449L0.196,-0.419C0.196,-0.412 0.192,-0.408 0.185,-0.408L0.132,-0.408L0.132,-0.111C0.132,-0.079 0.142,-0.063 0.162,-0.063C0.166,-0.063 0.171,-0.063 0.176,-0.064C0.18,-0.065 0.183,-0.066 0.185,-0.066C0.19,-0.066 0.194,-0.064 0.196,-0.059L0.203,-0.036C0.204,-0.034 0.205,-0.032 0.205,-0.031C0.205,-0.024 0.194,-0.015 0.172,-0.005C0.151,0.005 0.131,0.01 0.112,0.01C0.061,0.01 0.035,-0.021 0.035,-0.085L0.035,-0.408Z" style="fill-rule:nonzero;"/>
        </g>
        <g transform="matrix(57.9882,0,0,57.9882,390.315,303.075)">
            <path d="M0.073,-0.447L0.046,-0.591C0.039,-0.632 0.035,-0.658 0.035,-0.669C0.035,-0.711 0.051,-0.732 0.083,-0.732C0.097,-0.732 0.109,-0.728 0.119,-0.718C0.128,-0.708 0.133,-0.696 0.133,-0.68C0.133,-0.667 0.129,-0.638 0.121,-0.591L0.094,-0.447L0.073,-0.447Z" style="fill-rule:nonzero;"/>
        </g>
        <g transform="matrix(57.9882,0,0,57.9882,400.083,303.075)">
            <path d="M0.155,-0.471C0.187,-0.471 0.213,-0.463 0.234,-0.447C0.254,-0.431 0.265,-0.411 0.265,-0.386C0.265,-0.372 0.26,-0.36 0.25,-0.35C0.241,-0.34 0.228,-0.335 0.213,-0.335C0.201,-0.335 0.19,-0.339 0.18,-0.346C0.17,-0.353 0.166,-0.364 0.166,-0.377C0.166,-0.383 0.167,-0.389 0.17,-0.396C0.172,-0.401 0.173,-0.404 0.173,-0.406C0.173,-0.418 0.164,-0.423 0.147,-0.423C0.135,-0.423 0.124,-0.419 0.114,-0.41C0.104,-0.401 0.1,-0.389 0.1,-0.373C0.1,-0.359 0.104,-0.346 0.113,-0.334C0.122,-0.322 0.145,-0.302 0.182,-0.275C0.218,-0.249 0.243,-0.225 0.258,-0.203C0.272,-0.181 0.279,-0.156 0.279,-0.128C0.279,-0.084 0.265,-0.05 0.237,-0.026C0.208,-0.002 0.175,0.01 0.136,0.01C0.099,0.01 0.069,0.001 0.046,-0.016C0.023,-0.034 0.011,-0.057 0.011,-0.084C0.011,-0.099 0.016,-0.112 0.025,-0.123C0.034,-0.134 0.047,-0.139 0.064,-0.139C0.096,-0.139 0.111,-0.124 0.111,-0.095C0.111,-0.09 0.11,-0.083 0.108,-0.076C0.106,-0.069 0.105,-0.063 0.105,-0.061C0.105,-0.045 0.117,-0.037 0.14,-0.037C0.157,-0.037 0.171,-0.042 0.183,-0.053C0.194,-0.064 0.2,-0.076 0.2,-0.09C0.2,-0.106 0.195,-0.12 0.185,-0.133C0.175,-0.145 0.155,-0.163 0.126,-0.185C0.087,-0.215 0.06,-0.241 0.044,-0.262C0.028,-0.284 0.02,-0.31 0.02,-0.34C0.02,-0.379 0.034,-0.41 0.061,-0.435C0.088,-0.459 0.12,-0.471 0.155,-0.471Z" style="fill-rule:nonzero;"/>
        </g>
        <g transform="matrix(57.9882,0,0,57.9882,400.48,361.063)">
            <path d="M0.363,0L0.028,0C0.021,0 0.017,-0.004 0.017,-0.012L0.017,-0.033C0.017,-0.04 0.022,-0.048 0.033,-0.056C0.042,-0.063 0.047,-0.075 0.047,-0.091L0.047,-0.669C0.047,-0.686 0.041,-0.699 0.029,-0.707C0.021,-0.713 0.017,-0.719 0.017,-0.727L0.017,-0.75C0.017,-0.756 0.021,-0.759 0.028,-0.759L0.279,-0.759C0.284,-0.759 0.292,-0.76 0.305,-0.761C0.317,-0.762 0.324,-0.762 0.327,-0.762C0.337,-0.762 0.343,-0.759 0.343,-0.753L0.343,-0.61C0.343,-0.602 0.342,-0.598 0.341,-0.596C0.339,-0.595 0.335,-0.594 0.328,-0.594L0.31,-0.594C0.302,-0.594 0.298,-0.599 0.297,-0.608C0.293,-0.633 0.287,-0.655 0.278,-0.673C0.268,-0.691 0.25,-0.7 0.222,-0.7L0.16,-0.7L0.16,-0.424L0.183,-0.424C0.197,-0.424 0.206,-0.427 0.211,-0.432C0.217,-0.437 0.223,-0.454 0.231,-0.482C0.234,-0.492 0.235,-0.497 0.236,-0.498C0.237,-0.499 0.24,-0.499 0.245,-0.499L0.267,-0.499C0.275,-0.499 0.279,-0.495 0.279,-0.487L0.279,-0.303C0.279,-0.295 0.275,-0.291 0.268,-0.291L0.245,-0.291C0.24,-0.291 0.237,-0.292 0.235,-0.295C0.233,-0.297 0.23,-0.305 0.227,-0.317C0.221,-0.34 0.215,-0.355 0.208,-0.36C0.201,-0.365 0.192,-0.367 0.18,-0.367L0.16,-0.367L0.16,-0.058L0.226,-0.058C0.25,-0.058 0.267,-0.064 0.277,-0.075C0.286,-0.087 0.298,-0.119 0.312,-0.17C0.315,-0.182 0.321,-0.188 0.33,-0.188L0.351,-0.188C0.359,-0.188 0.363,-0.184 0.363,-0.176L0.363,0Z" style="fill-rule:nonzero;"/>
        </g>
        <g transform="matrix(57.9882,0,0,57.9882,422.084,361.063)">
            <path d="M0.184,-0.293L0.184,-0.362C0.184,-0.402 0.168,-0.422 0.137,-0.422C0.126,-0.422 0.12,-0.419 0.12,-0.412C0.12,-0.41 0.121,-0.406 0.123,-0.4C0.127,-0.391 0.129,-0.383 0.129,-0.376C0.129,-0.364 0.125,-0.353 0.117,-0.344C0.109,-0.336 0.097,-0.332 0.083,-0.332C0.067,-0.332 0.055,-0.336 0.045,-0.346C0.036,-0.356 0.031,-0.368 0.031,-0.384C0.031,-0.41 0.043,-0.43 0.066,-0.447C0.089,-0.463 0.115,-0.471 0.146,-0.471C0.188,-0.471 0.221,-0.459 0.245,-0.436C0.268,-0.413 0.28,-0.381 0.28,-0.339L0.28,-0.096C0.28,-0.082 0.282,-0.072 0.284,-0.065C0.287,-0.058 0.293,-0.054 0.303,-0.052C0.311,-0.05 0.314,-0.046 0.314,-0.039L0.314,-0.018C0.314,-0.001 0.301,0.008 0.274,0.008C0.239,0.008 0.214,-0.009 0.2,-0.044C0.169,-0.008 0.139,0.01 0.11,0.01C0.082,0.01 0.059,-0.001 0.042,-0.024C0.024,-0.047 0.015,-0.076 0.015,-0.112C0.015,-0.204 0.071,-0.264 0.184,-0.293ZM0.184,-0.244C0.138,-0.227 0.115,-0.189 0.115,-0.132C0.115,-0.087 0.127,-0.064 0.15,-0.064C0.161,-0.064 0.169,-0.069 0.175,-0.079C0.181,-0.09 0.184,-0.101 0.184,-0.113L0.184,-0.244Z" style="fill-rule:nonzero;"/>
        </g>
        <g transform="matrix(57.9882,0,0,57.9882,440.432,361.063)">
            <path d="M0.035,-0.408L0.018,-0.408C0.011,-0.408 0.007,-0.411 0.007,-0.417L0.007,-0.442C0.007,-0.449 0.01,-0.455 0.018,-0.46C0.027,-0.467 0.033,-0.475 0.036,-0.484C0.038,-0.492 0.04,-0.506 0.04,-0.526L0.04,-0.606C0.04,-0.614 0.045,-0.618 0.055,-0.62L0.115,-0.626C0.12,-0.627 0.123,-0.627 0.125,-0.627C0.13,-0.627 0.132,-0.623 0.132,-0.615L0.132,-0.46L0.182,-0.46C0.191,-0.46 0.196,-0.457 0.196,-0.449L0.196,-0.419C0.196,-0.412 0.192,-0.408 0.185,-0.408L0.132,-0.408L0.132,-0.111C0.132,-0.079 0.142,-0.063 0.162,-0.063C0.166,-0.063 0.171,-0.063 0.176,-0.064C0.18,-0.065 0.183,-0.066 0.185,-0.066C0.19,-0.066 0.194,-0.064 0.196,-0.059L0.203,-0.036C0.204,-0.034 0.205,-0.032 0.205,-0.031C0.205,-0.024 0.194,-0.015 0.172,-0.005C0.151,0.005 0.131,0.01 0.112,0.01C0.061,0.01 0.035,-0.021 0.035,-0.085L0.035,-0.408Z" style="fill-rule:nonzero;"/>
        </g>
        <g transform="matrix(57.9882,0,0,57.9882,452.295,361.063)">
            <path d="M0.124,-0.202C0.123,-0.194 0.12,-0.19 0.114,-0.19L0.084,-0.19C0.077,-0.19 0.074,-0.194 0.074,-0.202C0.073,-0.319 0.064,-0.449 0.046,-0.591C0.041,-0.637 0.038,-0.667 0.038,-0.682C0.038,-0.737 0.058,-0.765 0.099,-0.765C0.14,-0.765 0.161,-0.738 0.161,-0.685C0.161,-0.664 0.158,-0.627 0.151,-0.574C0.136,-0.458 0.128,-0.364 0.126,-0.292L0.124,-0.202ZM0.16,-0.053C0.16,-0.035 0.154,-0.021 0.142,-0.008C0.129,0.004 0.114,0.01 0.097,0.01C0.08,0.01 0.065,0.004 0.053,-0.008C0.041,-0.021 0.035,-0.035 0.035,-0.053C0.035,-0.07 0.041,-0.085 0.053,-0.097C0.065,-0.109 0.08,-0.115 0.097,-0.115C0.115,-0.115 0.13,-0.109 0.142,-0.097C0.154,-0.085 0.16,-0.07 0.16,-0.053Z" style="fill-rule:nonzero;"/>
        </g>
    </g>
</svg>
