<?xml version="1.0" encoding="UTF-8" standalone="no"?>
<!DOCTYPE svg PUBLIC "-//W3C//DTD SVG 1.1//EN" "http://www.w3.org/Graphics/SVG/1.1/DTD/svg11.dtd">
<svg width="100%" height="100%" viewBox="0 0 618 442" version="1.1" xmlns="http://www.w3.org/2000/svg" xmlns:xlink="http://www.w3.org/1999/xlink" xml:space="preserve" xmlns:serif="http://www.serif.com/" style="fill-rule:evenodd;clip-rule:evenodd;stroke-linejoin:round;stroke-miterlimit:2;">
    <g transform="matrix(1,0,0,1,-94.0272,-70)">
        <g>
            <g transform="matrix(0.653697,0,0,0.971216,205.485,131.226)">
                <g id="Pancake-Stacks" serif:id="Pancake Stacks">
                    <g>
                        <g transform="matrix(0.883177,0,0,1.94829,46.7649,-365.457)">
                            <path d="M760.006,336.427C766.508,336.43 771.787,341.71 771.787,348.213C771.787,354.717 766.508,359.997 760.006,360L760.006,360L140,360C133.495,360 128.213,354.719 128.213,348.213C128.213,341.708 133.495,336.427 140,336.427L760.006,336.427L760.006,336.427Z" style="fill:rgb(252,189,84);"/>
                            <path d="M140,360L760,360L760.006,360C766.508,359.997 771.787,354.717 771.787,348.213C771.787,341.71 766.508,336.43 760.006,336.427L760.006,336.427L140,336.427C133.495,336.427 128.213,341.708 128.213,348.213C128.213,354.719 133.495,360 140,360L140,361.057C137.086,361.057 134.021,360.475 131.599,359.22C127.619,357.155 124.749,353.004 124.749,348.213C124.749,343.423 127.619,339.272 131.599,337.207C134.021,335.952 137.086,335.37 140,335.37L760.006,335.37L760.011,335.37L760.011,335.37C762.922,335.371 765.986,335.954 768.404,337.209C772.383,339.275 775.251,343.425 775.251,348.213C775.251,353.002 772.383,357.152 768.404,359.217C765.987,360.472 762.927,361.055 760.017,361.057L760.011,361.057L760.036,361.057C760,361.057 760.006,361.057 760.006,361.057L760.011,361.057L759.964,361.057C759.964,361.057 759.964,361.057 760,361.057L140,361.057L140,360Z"/>
                        </g>
                        <g transform="matrix(1,0,0,1,17.262,-121.642)">
                            <path d="M710.629,441.642C710.629,441.642 316.922,452.764 178.738,434.606C147.842,430.546 154.421,418.203 153.148,411.642C141.692,412.497 138.663,458.293 155.148,457.57C175.026,456.698 281.861,458.035 392.738,457.57C541.784,456.945 701.037,457.711 700.717,457.57C700.159,457.324 708.221,457.939 710.629,441.642Z" style="fill:rgb(237,153,32);fill-opacity:0.56;"/>
                        </g>
                    </g>
                </g>
                <g id="Pancake-Stacks1" serif:id="Pancake Stacks" transform="matrix(1,0,0,1,0,-50)">
                    <g>
                        <g transform="matrix(0.883177,0,0,1.94829,46.7649,-365.457)">
                            <path d="M760.006,336.427C766.508,336.43 771.787,341.71 771.787,348.213C771.787,354.717 766.508,359.997 760.006,360L760.006,360L140,360C133.495,360 128.213,354.719 128.213,348.213C128.213,341.708 133.495,336.427 140,336.427L760.006,336.427L760.006,336.427Z" style="fill:rgb(252,189,84);"/>
                            <path d="M760.011,335.37L760.011,335.37C762.922,335.371 765.986,335.954 768.404,337.209C772.383,339.275 775.251,343.425 775.251,348.213C775.251,353.002 772.383,357.152 768.404,359.217C765.987,360.472 762.927,361.055 760.017,361.057L760.011,361.057L760.036,361.057C760,361.057 760.006,361.057 760.006,361.057L760.011,361.057L759.964,361.057C759.964,361.057 759.964,361.057 760,361.057L140,361.057C137.086,361.057 134.021,360.475 131.599,359.22C127.619,357.155 124.749,353.004 124.749,348.213C124.749,343.423 127.619,339.272 131.599,337.207C134.021,335.952 137.086,335.37 140,335.37L760.006,335.37L760.011,335.37ZM760.006,336.427C766.508,336.43 771.787,341.71 771.787,348.213C771.787,354.717 766.508,359.997 760.006,360L760,360L140,360C133.495,360 128.213,354.719 128.213,348.213C128.213,341.708 133.495,336.427 140,336.427L760.006,336.427L760.006,336.427Z"/>
                        </g>
                        <g transform="matrix(1,0,0,1,17.262,-121.642)">
                            <path d="M710.629,441.642C710.629,441.642 316.922,452.764 178.738,434.606C147.842,430.546 154.421,418.203 153.148,411.642C141.692,412.497 138.663,458.293 155.148,457.57C175.026,456.698 281.861,458.035 392.738,457.57C541.784,456.945 701.037,457.711 700.717,457.57C700.159,457.324 708.221,457.939 710.629,441.642Z" style="fill:rgb(237,153,32);fill-opacity:0.56;"/>
                        </g>
                    </g>
                </g>
                <g id="Pancake-Stacks2" serif:id="Pancake Stacks" transform="matrix(1,0,0,1,0,-100)">
                    <g>
                        <g transform="matrix(0.883177,0,0,1.94829,46.7649,-365.457)">
                            <path d="M760.006,336.427C766.508,336.43 771.787,341.71 771.787,348.213C771.787,354.717 766.508,359.997 760.006,360L760.006,360L140,360C133.495,360 128.213,354.719 128.213,348.213C128.213,341.708 133.495,336.427 140,336.427L760.006,336.427L760.006,336.427Z" style="fill:rgb(252,189,84);"/>
                            <path d="M140,360L760,360L760.006,360C766.508,359.997 771.787,354.717 771.787,348.213C771.787,341.71 766.508,336.43 760.006,336.427L760.006,336.427L140,336.427C133.495,336.427 128.213,341.708 128.213,348.213C128.213,354.719 133.495,360 140,360L140,361.057C137.086,361.057 134.021,360.475 131.599,359.22C127.619,357.155 124.749,353.004 124.749,348.213C124.749,343.423 127.619,339.272 131.599,337.207C134.021,335.952 137.086,335.37 140,335.37L760.006,335.37L760.011,335.37L760.011,335.37C762.922,335.371 765.986,335.954 768.404,337.209C772.383,339.275 775.251,343.425 775.251,348.213C775.251,353.002 772.383,357.152 768.404,359.217C765.987,360.472 762.927,361.055 760.017,361.057L760.011,361.057L760.036,361.057C760,361.057 760.006,361.057 760.006,361.057L760.011,361.057L759.964,361.057C759.964,361.057 759.964,361.057 760,361.057L140,361.057L140,360Z"/>
                        </g>
                        <g transform="matrix(1,0,0,1,17.262,-121.642)">
                            <path d="M710.629,441.642C710.629,441.642 316.922,452.764 178.738,434.606C147.842,430.546 154.421,418.203 153.148,411.642C141.692,412.497 138.663,458.293 155.148,457.57C175.026,456.698 281.861,458.035 392.738,457.57C541.784,456.945 701.037,457.711 700.717,457.57C700.159,457.324 708.221,457.939 710.629,441.642Z" style="fill:rgb(237,153,32);fill-opacity:0.56;"/>
                        </g>
                    </g>
                </g>
                <g id="Pancake-Stacks3" serif:id="Pancake Stacks" transform="matrix(1,0,0,1,0,-150)">
                    <g>
                        <g transform="matrix(0.883177,0,0,1.94829,46.7649,-365.457)">
                            <path d="M760.006,336.427C766.508,336.43 771.787,341.71 771.787,348.213C771.787,354.717 766.508,359.997 760.006,360L760.006,360L140,360C133.495,360 128.213,354.719 128.213,348.213C128.213,341.708 133.495,336.427 140,336.427L760.006,336.427L760.006,336.427Z" style="fill:rgb(252,189,84);"/>
                            <path d="M760.011,335.37L760.011,335.37C762.922,335.371 765.986,335.954 768.404,337.209C772.383,339.275 775.251,343.425 775.251,348.213C775.251,353.002 772.383,357.152 768.404,359.217C765.987,360.472 762.927,361.055 760.017,361.057L760.011,361.057L760.036,361.057C760,361.057 760.006,361.057 760.006,361.057L760.011,361.057L759.964,361.057C759.964,361.057 759.964,361.057 760,361.057L140,361.057C137.086,361.057 134.021,360.475 131.599,359.22C127.619,357.155 124.749,353.004 124.749,348.213C124.749,343.423 127.619,339.272 131.599,337.207C134.021,335.952 137.086,335.37 140,335.37L760.006,335.37L760.011,335.37ZM760.006,336.427C766.508,336.43 771.787,341.71 771.787,348.213C771.787,354.717 766.508,359.997 760.006,360L760,360L140,360C133.495,360 128.213,354.719 128.213,348.213C128.213,341.708 133.495,336.427 140,336.427L760.006,336.427L760.006,336.427Z"/>
                        </g>
                        <g transform="matrix(1,0,0,1,17.262,-121.642)">
                            <path d="M710.629,441.642C710.629,441.642 316.922,452.764 178.738,434.606C147.842,430.546 154.421,418.203 153.148,411.642C141.692,412.497 138.663,458.293 155.148,457.57C175.026,456.698 281.861,458.035 392.738,457.57C541.784,456.945 701.037,457.711 700.717,457.57C700.159,457.324 708.221,457.939 710.629,441.642Z" style="fill:rgb(237,153,32);fill-opacity:0.56;"/>
                        </g>
                    </g>
                </g>
                <g id="Plate">
                    <g transform="matrix(1,0,0,1,-1.52976,20)">
                        <path d="M750,340C750,356.569 736.569,370 720,370L720,340L750,340ZM150,340C150,356.569 163.431,370 180,370L180,340L150,340ZM720,340L180,340L180,370L720,370L720,340Z" style="fill:rgb(211,197,192);"/>
                        <path d="M180,337.941L750,337.941C751.69,337.941 753.06,338.863 753.06,340C753.06,350.521 747.853,359.827 739.971,365.605C734.386,369.698 727.455,372.059 720,372.059L180,372.059C172.545,372.059 165.614,369.698 160.029,365.605C152.147,359.827 146.94,350.521 146.94,340C146.94,338.863 148.31,337.941 150,337.941L180,337.941ZM750,340C750,356.569 736.569,370 720,370L720,340L750,340ZM150,340C150,356.569 163.431,370 180,370L180,340L150,340ZM720,340L180,340L180,370L720,370L720,340Z"/>
                    </g>
                    <path d="M760.006,336.427C766.508,336.43 771.787,341.71 771.787,348.213C771.787,354.717 766.508,359.997 760.006,360L760.006,360L140,360C133.495,360 128.213,354.719 128.213,348.213C128.213,341.708 133.495,336.427 140,336.427L760.006,336.427L760.006,336.427Z" style="fill:rgb(255,252,251);"/>
                    <path d="M140,362.059C136.57,362.059 133.358,361.002 130.787,359.117C127.426,356.653 125.154,352.696 125.154,348.213C125.154,343.73 127.426,339.774 130.787,337.31C133.358,335.424 136.57,334.368 140,334.368L760.006,334.368L760.008,334.368C763.436,334.369 766.646,335.427 769.216,337.312C772.575,339.776 774.846,343.732 774.846,348.213C774.846,352.695 772.575,356.65 769.216,359.115C766.647,361 763.437,362.057 760.008,362.059L760.015,362.059C760,362.059 760.006,362.059 760.006,362.059L760.008,362.059L759.986,362.059C759.986,362.059 759.985,362.059 760,362.059C760,362.059 140,362.059 140,362.059ZM760.006,336.427C766.508,336.43 771.787,341.71 771.787,348.213C771.787,354.717 766.508,359.997 760.006,360L760,360L140,360C133.495,360 128.213,354.719 128.213,348.213C128.213,341.708 133.495,336.427 140,336.427L760.006,336.427L760.006,336.427Z"/>
                </g>
                <g id="Syrup" transform="matrix(1,0,0,1,0,4)">
                    <path d="M444.247,165.478L444.247,272.042C444.247,282.417 435.224,290.841 424.111,290.841C412.997,290.841 403.974,282.417 403.974,272.042L403.974,180.398C403.974,169.14 391.034,160 378.974,160C366.915,160 353.974,169.14 353.974,180.398L353.974,222.815C353.974,234.073 344.184,243.213 332.125,243.213C320.066,243.213 310.275,234.073 310.275,222.815L310.275,136.427L310.282,136.427C310.102,136.007 310,135.529 310,135.021C310,133.354 311.102,132 312.459,132L441.789,132C443.146,132.001 444.247,133.354 444.247,135.021C444.247,135.529 444.145,136.007 443.965,136.427L516.5,136.427L516.5,136L563.5,136L563.5,297.5C563.5,310.47 552.97,321 540,321C527.03,321 516.5,310.47 516.5,297.5L516.5,165.478C516.5,152.61 500.312,142.162 480.373,142.162C460.435,142.162 444.247,152.61 444.247,165.478Z" style="fill:rgb(166,88,18);"/>
                    <path d="M307.216,136.665C307.04,136.16 306.94,135.604 306.94,135.021C306.94,133.184 307.983,131.634 309.225,130.842C310.183,130.232 311.306,129.941 312.459,129.941C312.459,129.941 441.789,129.941 441.792,129.941C442.944,129.941 444.066,130.233 445.023,130.843C446.114,131.539 447.051,132.821 447.262,134.368L514.636,134.368C515.152,134.1 515.798,133.941 516.5,133.941L563.5,133.941C565.19,133.941 566.56,134.863 566.56,136L566.56,297.5C566.56,305.862 562.398,313.259 556.129,317.856C551.619,321.163 546.015,323.059 540,323.059C533.985,323.059 528.381,321.163 523.871,317.856C517.602,313.259 513.44,305.862 513.44,297.5C513.44,297.5 513.44,165.478 513.44,165.478C513.44,153.722 498.589,144.221 480.373,144.221C462.158,144.221 447.306,153.722 447.306,165.478L447.306,272.042C447.306,278.868 443.663,284.903 438.181,288.655C434.245,291.35 429.361,292.9 424.111,292.9C418.86,292.9 413.977,291.35 410.04,288.655C404.559,284.903 400.915,278.868 400.915,272.042L400.915,180.398C400.915,174.282 396.707,168.853 390.974,165.491C387.349,163.365 383.117,162.059 378.974,162.059C374.832,162.059 370.6,163.365 366.975,165.491C361.242,168.853 357.034,174.282 357.034,180.398L357.034,222.815C357.034,230.171 353.114,236.676 347.207,240.719C342.987,243.608 337.754,245.273 332.125,245.273C326.496,245.273 321.263,243.608 317.043,240.719C311.136,236.676 307.216,230.171 307.216,222.815L307.216,136.665ZM444.247,165.478L444.247,272.042C444.247,282.417 435.224,290.841 424.111,290.841C412.997,290.841 403.974,282.417 403.974,272.042L403.974,180.398C403.974,169.14 391.034,160 378.974,160C366.915,160 353.974,169.14 353.974,180.398L353.974,222.815C353.974,234.073 344.184,243.213 332.125,243.213C320.066,243.213 310.275,234.073 310.275,222.815L310.275,136.427L310.282,136.427C310.102,136.007 310,135.529 310,135.021C310,133.354 311.102,132 312.459,132L441.789,132C443.146,132.001 444.247,133.354 444.247,135.021C444.247,135.529 444.145,136.007 443.965,136.427L516.5,136.427L516.5,136L563.5,136L563.5,297.5C563.5,310.47 552.97,321 540,321C527.03,321 516.5,310.47 516.5,297.5L516.5,165.478C516.5,152.61 500.312,142.162 480.373,142.162C460.435,142.162 444.247,152.61 444.247,165.478Z"/>
                </g>
                <g transform="matrix(0.291545,0,0,0.285714,341.399,57.5714)">
                    <g id="Butter">
                        <g id="Butter1" serif:id="Butter">
                            <path d="M670,262.5C670,255.601 661.845,250 651.8,250L198.2,250C188.155,250 180,255.601 180,262.5L180,287.5C180,294.399 188.155,300 198.2,300L651.8,300C661.845,300 670,294.399 670,287.5L670,262.5Z" style="fill:rgb(255,220,0);"/>
                            <path d="M680.494,262.5C680.494,251.623 667.637,242.793 651.8,242.793L198.2,242.793C182.363,242.793 169.506,251.623 169.506,262.5L169.506,287.5C169.506,298.377 182.363,307.207 198.2,307.207C198.2,307.207 651.8,307.207 651.8,307.207C667.637,307.207 680.494,298.377 680.494,287.5C680.494,287.5 680.494,262.5 680.494,262.5ZM670,262.5C670,255.601 661.845,250 651.8,250L198.2,250C188.155,250 180,255.601 180,262.5L180,287.5C180,294.399 188.155,300 198.2,300L651.8,300C661.845,300 670,294.399 670,287.5L670,262.5Z"/>
                        </g>
                    </g>
                </g>
            </g>
            <g transform="matrix(0.965926,-0.258819,0.258819,0.965926,26.6429,122.012)">
                <g transform="matrix(153.565,0,0,153.565,50,180)">
                    <path d="M0.047,-0.091L0.047,-0.669C0.047,-0.686 0.041,-0.698 0.028,-0.707C0.02,-0.712 0.016,-0.719 0.016,-0.727L0.016,-0.748C0.016,-0.756 0.02,-0.759 0.028,-0.759L0.181,-0.759C0.188,-0.759 0.191,-0.756 0.191,-0.749L0.191,-0.727C0.191,-0.719 0.187,-0.712 0.179,-0.707C0.166,-0.698 0.16,-0.685 0.16,-0.669L0.16,-0.058L0.202,-0.058C0.226,-0.058 0.245,-0.066 0.259,-0.081C0.272,-0.096 0.282,-0.122 0.289,-0.158C0.291,-0.172 0.293,-0.18 0.294,-0.182C0.295,-0.184 0.298,-0.186 0.303,-0.186L0.326,-0.186C0.334,-0.186 0.339,-0.182 0.339,-0.175L0.339,0L0.028,0C0.017,0 0.012,-0.005 0.012,-0.015L0.012,-0.033C0.012,-0.041 0.016,-0.047 0.026,-0.053C0.04,-0.061 0.047,-0.074 0.047,-0.091Z" style="fill-rule:nonzero;"/>
                </g>
                <g transform="matrix(153.565,0,0,153.565,103.538,180)">
                    <path d="M0.291,-0.119C0.283,-0.033 0.244,0.01 0.174,0.01C0.127,0.01 0.09,-0.009 0.063,-0.049C0.036,-0.088 0.022,-0.147 0.022,-0.226C0.022,-0.302 0.035,-0.362 0.061,-0.405C0.087,-0.449 0.121,-0.471 0.165,-0.471C0.204,-0.471 0.235,-0.454 0.259,-0.42C0.283,-0.386 0.294,-0.341 0.294,-0.286L0.294,-0.245C0.294,-0.237 0.29,-0.233 0.282,-0.233L0.13,-0.233L0.13,-0.193C0.13,-0.149 0.134,-0.115 0.143,-0.092C0.151,-0.068 0.166,-0.057 0.187,-0.057C0.212,-0.057 0.229,-0.08 0.238,-0.128L0.291,-0.119ZM0.201,-0.287L0.201,-0.354C0.201,-0.401 0.189,-0.424 0.165,-0.424C0.141,-0.424 0.13,-0.394 0.13,-0.334L0.13,-0.287L0.201,-0.287Z" style="fill-rule:nonzero;"/>
                </g>
                <g transform="matrix(153.565,0,0,153.565,151.827,180)">
                    <path d="M0.035,-0.408L0.018,-0.408C0.011,-0.408 0.007,-0.411 0.007,-0.417L0.007,-0.442C0.007,-0.449 0.01,-0.455 0.018,-0.46C0.027,-0.467 0.033,-0.475 0.036,-0.484C0.038,-0.492 0.04,-0.506 0.04,-0.526L0.04,-0.606C0.04,-0.614 0.045,-0.618 0.055,-0.62L0.115,-0.626C0.12,-0.627 0.123,-0.627 0.125,-0.627C0.13,-0.627 0.132,-0.623 0.132,-0.615L0.132,-0.46L0.182,-0.46C0.191,-0.46 0.196,-0.457 0.196,-0.449L0.196,-0.419C0.196,-0.412 0.192,-0.408 0.185,-0.408L0.132,-0.408L0.132,-0.111C0.132,-0.079 0.142,-0.063 0.162,-0.063C0.166,-0.063 0.171,-0.063 0.176,-0.064C0.18,-0.065 0.183,-0.066 0.185,-0.066C0.19,-0.066 0.194,-0.064 0.196,-0.059L0.203,-0.036C0.204,-0.034 0.205,-0.032 0.205,-0.031C0.205,-0.024 0.194,-0.015 0.172,-0.005C0.151,0.005 0.131,0.01 0.112,0.01C0.061,0.01 0.035,-0.021 0.035,-0.085L0.035,-0.408Z" style="fill-rule:nonzero;"/>
                </g>
                <g transform="matrix(153.565,0,0,153.565,183.245,180)">
                    <path d="M0.073,-0.447L0.046,-0.591C0.039,-0.632 0.035,-0.658 0.035,-0.669C0.035,-0.711 0.051,-0.732 0.083,-0.732C0.097,-0.732 0.109,-0.728 0.119,-0.718C0.128,-0.708 0.133,-0.696 0.133,-0.68C0.133,-0.667 0.129,-0.638 0.121,-0.591L0.094,-0.447L0.073,-0.447Z" style="fill-rule:nonzero;"/>
                </g>
                <g transform="matrix(153.565,0,0,153.565,209.114,180)">
                    <path d="M0.155,-0.471C0.187,-0.471 0.213,-0.463 0.234,-0.447C0.254,-0.431 0.265,-0.411 0.265,-0.386C0.265,-0.372 0.26,-0.36 0.25,-0.35C0.241,-0.34 0.228,-0.335 0.213,-0.335C0.201,-0.335 0.19,-0.339 0.18,-0.346C0.17,-0.353 0.166,-0.364 0.166,-0.377C0.166,-0.383 0.167,-0.389 0.17,-0.396C0.172,-0.401 0.173,-0.404 0.173,-0.406C0.173,-0.418 0.164,-0.423 0.147,-0.423C0.135,-0.423 0.124,-0.419 0.114,-0.41C0.104,-0.401 0.1,-0.389 0.1,-0.373C0.1,-0.359 0.104,-0.346 0.113,-0.334C0.122,-0.322 0.145,-0.302 0.182,-0.275C0.218,-0.249 0.243,-0.225 0.258,-0.203C0.272,-0.181 0.279,-0.156 0.279,-0.128C0.279,-0.084 0.265,-0.05 0.237,-0.026C0.208,-0.002 0.175,0.01 0.136,0.01C0.099,0.01 0.069,0.001 0.046,-0.016C0.023,-0.034 0.011,-0.057 0.011,-0.084C0.011,-0.099 0.016,-0.112 0.025,-0.123C0.034,-0.134 0.047,-0.139 0.064,-0.139C0.096,-0.139 0.111,-0.124 0.111,-0.095C0.111,-0.09 0.11,-0.083 0.108,-0.076C0.106,-0.069 0.105,-0.063 0.105,-0.061C0.105,-0.045 0.117,-0.037 0.14,-0.037C0.157,-0.037 0.171,-0.042 0.183,-0.053C0.194,-0.064 0.2,-0.076 0.2,-0.09C0.2,-0.106 0.195,-0.12 0.185,-0.133C0.175,-0.145 0.155,-0.163 0.126,-0.185C0.087,-0.215 0.06,-0.241 0.044,-0.262C0.028,-0.284 0.02,-0.31 0.02,-0.34C0.02,-0.379 0.034,-0.41 0.061,-0.435C0.088,-0.459 0.12,-0.471 0.155,-0.471Z" style="fill-rule:nonzero;"/>
                </g>
                <g transform="matrix(153.565,0,0,153.565,280.423,180)">
                    <path d="M0.363,0L0.028,0C0.021,0 0.017,-0.004 0.017,-0.012L0.017,-0.033C0.017,-0.04 0.022,-0.048 0.033,-0.056C0.042,-0.063 0.047,-0.075 0.047,-0.091L0.047,-0.669C0.047,-0.686 0.041,-0.699 0.029,-0.707C0.021,-0.713 0.017,-0.719 0.017,-0.727L0.017,-0.75C0.017,-0.756 0.021,-0.759 0.028,-0.759L0.279,-0.759C0.284,-0.759 0.292,-0.76 0.305,-0.761C0.317,-0.762 0.324,-0.762 0.327,-0.762C0.337,-0.762 0.343,-0.759 0.343,-0.753L0.343,-0.61C0.343,-0.602 0.342,-0.598 0.341,-0.596C0.339,-0.595 0.335,-0.594 0.328,-0.594L0.31,-0.594C0.302,-0.594 0.298,-0.599 0.297,-0.608C0.293,-0.633 0.287,-0.655 0.278,-0.673C0.268,-0.691 0.25,-0.7 0.222,-0.7L0.16,-0.7L0.16,-0.424L0.183,-0.424C0.197,-0.424 0.206,-0.427 0.211,-0.432C0.217,-0.437 0.223,-0.454 0.231,-0.482C0.234,-0.492 0.235,-0.497 0.236,-0.498C0.237,-0.499 0.24,-0.499 0.245,-0.499L0.267,-0.499C0.275,-0.499 0.279,-0.495 0.279,-0.487L0.279,-0.303C0.279,-0.295 0.275,-0.291 0.268,-0.291L0.245,-0.291C0.24,-0.291 0.237,-0.292 0.235,-0.295C0.233,-0.297 0.23,-0.305 0.227,-0.317C0.221,-0.34 0.215,-0.355 0.208,-0.36C0.201,-0.365 0.192,-0.367 0.18,-0.367L0.16,-0.367L0.16,-0.058L0.226,-0.058C0.25,-0.058 0.267,-0.064 0.277,-0.075C0.286,-0.087 0.298,-0.119 0.312,-0.17C0.315,-0.182 0.321,-0.188 0.33,-0.188L0.351,-0.188C0.359,-0.188 0.363,-0.184 0.363,-0.176L0.363,0Z" style="fill-rule:nonzero;"/>
                </g>
                <g transform="matrix(153.565,0,0,153.565,337.635,180)">
                    <path d="M0.184,-0.293L0.184,-0.362C0.184,-0.402 0.168,-0.422 0.137,-0.422C0.126,-0.422 0.12,-0.419 0.12,-0.412C0.12,-0.41 0.121,-0.406 0.123,-0.4C0.127,-0.391 0.129,-0.383 0.129,-0.376C0.129,-0.364 0.125,-0.353 0.117,-0.344C0.109,-0.336 0.097,-0.332 0.083,-0.332C0.067,-0.332 0.055,-0.336 0.045,-0.346C0.036,-0.356 0.031,-0.368 0.031,-0.384C0.031,-0.41 0.043,-0.43 0.066,-0.447C0.089,-0.463 0.115,-0.471 0.146,-0.471C0.188,-0.471 0.221,-0.459 0.245,-0.436C0.268,-0.413 0.28,-0.381 0.28,-0.339L0.28,-0.096C0.28,-0.082 0.282,-0.072 0.284,-0.065C0.287,-0.058 0.293,-0.054 0.303,-0.052C0.311,-0.05 0.314,-0.046 0.314,-0.039L0.314,-0.018C0.314,-0.001 0.301,0.008 0.274,0.008C0.239,0.008 0.214,-0.009 0.2,-0.044C0.169,-0.008 0.139,0.01 0.11,0.01C0.082,0.01 0.059,-0.001 0.042,-0.024C0.024,-0.047 0.015,-0.076 0.015,-0.112C0.015,-0.204 0.071,-0.264 0.184,-0.293ZM0.184,-0.244C0.138,-0.227 0.115,-0.189 0.115,-0.132C0.115,-0.087 0.127,-0.064 0.15,-0.064C0.161,-0.064 0.169,-0.069 0.175,-0.079C0.181,-0.09 0.184,-0.101 0.184,-0.113L0.184,-0.244Z" style="fill-rule:nonzero;"/>
                </g>
                <g transform="matrix(153.565,0,0,153.565,386.224,180)">
                    <path d="M0.035,-0.408L0.018,-0.408C0.011,-0.408 0.007,-0.411 0.007,-0.417L0.007,-0.442C0.007,-0.449 0.01,-0.455 0.018,-0.46C0.027,-0.467 0.033,-0.475 0.036,-0.484C0.038,-0.492 0.04,-0.506 0.04,-0.526L0.04,-0.606C0.04,-0.614 0.045,-0.618 0.055,-0.62L0.115,-0.626C0.12,-0.627 0.123,-0.627 0.125,-0.627C0.13,-0.627 0.132,-0.623 0.132,-0.615L0.132,-0.46L0.182,-0.46C0.191,-0.46 0.196,-0.457 0.196,-0.449L0.196,-0.419C0.196,-0.412 0.192,-0.408 0.185,-0.408L0.132,-0.408L0.132,-0.111C0.132,-0.079 0.142,-0.063 0.162,-0.063C0.166,-0.063 0.171,-0.063 0.176,-0.064C0.18,-0.065 0.183,-0.066 0.185,-0.066C0.19,-0.066 0.194,-0.064 0.196,-0.059L0.203,-0.036C0.204,-0.034 0.205,-0.032 0.205,-0.031C0.205,-0.024 0.194,-0.015 0.172,-0.005C0.151,0.005 0.131,0.01 0.112,0.01C0.061,0.01 0.035,-0.021 0.035,-0.085L0.035,-0.408Z" style="fill-rule:nonzero;"/>
                </g>
                <g transform="matrix(153.565,0,0,153.565,417.641,180)">
                    <path d="M0.124,-0.202C0.123,-0.194 0.12,-0.19 0.114,-0.19L0.084,-0.19C0.077,-0.19 0.074,-0.194 0.074,-0.202C0.073,-0.319 0.064,-0.449 0.046,-0.591C0.041,-0.637 0.038,-0.667 0.038,-0.682C0.038,-0.737 0.058,-0.765 0.099,-0.765C0.14,-0.765 0.161,-0.738 0.161,-0.685C0.161,-0.664 0.158,-0.627 0.151,-0.574C0.136,-0.458 0.128,-0.364 0.126,-0.292L0.124,-0.202ZM0.16,-0.053C0.16,-0.035 0.154,-0.021 0.142,-0.008C0.129,0.004 0.114,0.01 0.097,0.01C0.08,0.01 0.065,0.004 0.053,-0.008C0.041,-0.021 0.035,-0.035 0.035,-0.053C0.035,-0.07 0.041,-0.085 0.053,-0.097C0.065,-0.109 0.08,-0.115 0.097,-0.115C0.115,-0.115 0.13,-0.109 0.142,-0.097C0.154,-0.085 0.16,-0.07 0.16,-0.053Z" style="fill-rule:nonzero;"/>
                </g>
            </g>
        </g>
    </g>
</svg>
